<svg width="38" height="33" viewBox="0 0 38 33" fill="none" xmlns="http://www.w3.org/2000/svg">
<path d="M0 10C0 4.47715 4.47715 0 10 0L27.2308 0C32.7536 0 37.2308 4.47715 37.2308 10V23C37.2308 28.5228 32.7536 33 27.2308 33H10C4.47716 33 0 28.5228 0 23L0 10Z" fill="#334155"/>
<path d="M29 29C29 25.3187 24.2986 22.3333 18.5 22.3333C12.7014 22.3333 8 25.3187 8 29M18.5 18.3333C16.7595 18.3333 15.0903 17.631 13.8596 16.3807C12.6289 15.1305 11.9375 13.4348 11.9375 11.6667C11.9375 9.89856 12.6289 8.20286 13.8596 6.95262C15.0903 5.70238 16.7595 5 18.5 5C20.2405 5 21.9097 5.70238 23.1404 6.95262C24.3711 8.20286 25.0625 9.89856 25.0625 11.6667C25.0625 13.4348 24.3711 15.1305 23.1404 16.3807C21.9097 17.631 20.2405 18.3333 18.5 18.3333Z" stroke="white" stroke-width="2" stroke-linecap="round" stroke-linejoin="round"/>
</svg>
